<?xml version="1.0" standalone="no"?>
<!DOCTYPE svg PUBLIC "-//W3C//DTD SVG 20010904//EN"
 "http://www.w3.org/TR/2001/REC-SVG-20010904/DTD/svg10.dtd">
<svg version="1.0" xmlns="http://www.w3.org/2000/svg"
 width="512.000000pt" height="512.000000pt" viewBox="0 0 512.000000 512.000000"
 preserveAspectRatio="xMidYMid meet">

<g transform="translate(0.000000,512.000000) scale(0.100000,-0.100000)"
fill="#000000" stroke="none">
<path d="M3215 4714 c-132 -21 -285 -74 -354 -123 -37 -27 -41 -26 -41 4 l0
25 -515 0 -515 0 0 -150 0 -150 401 0 c378 0 401 -1 396 -17 -3 -10 -22 -55
-42 -101 -20 -45 -49 -133 -65 -195 l-28 -112 -331 -3 -331 -2 0 -150 0 -150
324 0 324 0 7 -57 c9 -77 80 -292 103 -315 28 -28 35 13 47 279 7 147 13 269
14 271 1 1 87 2 191 2 211 0 324 10 510 45 199 38 374 105 453 174 l34 30 17
-36 c46 -96 121 -156 226 -181 l69 -16 5 -41 c3 -22 10 -141 16 -265 13 -269
14 -272 43 -268 18 2 27 20 54 98 52 155 67 247 67 415 0 108 -5 174 -18 235
-88 411 -280 640 -612 730 -63 17 -114 22 -249 25 -93 2 -183 1 -200 -1z"/>
<path d="M420 3010 l0 -150 1136 0 1135 0 -19 28 c-26 36 -86 158 -101 203
-10 31 -15 35 -37 31 -16 -3 -36 3 -54 17 l-29 21 -1016 0 -1015 0 0 -150z"/>
<path d="M420 2275 l0 -155 1143 0 1142 -1 -170 -87 c-200 -103 -346 -193
-456 -279 l-79 -63 -790 0 -790 0 0 -155 0 -155 691 0 691 0 -6 -22 c-69 -252
-113 -828 -89 -1180 l6 -98 1658 0 1657 0 8 67 c9 85 -2 580 -16 728 -25 267
-62 450 -120 587 -78 188 -288 359 -710 578 -102 53 -212 115 -244 138 l-59
42 -13 -27 c-7 -16 -81 -316 -164 -668 -83 -352 -154 -648 -158 -659 -5 -10
-20 146 -36 350 -15 203 -30 393 -33 422 l-6 52 -53 0 -54 0 -1 -797 c-1 -439
-3 -789 -6 -778 -3 11 -41 173 -84 359 -44 186 -82 342 -84 346 -2 4 -43 171
-90 371 -274 1160 -241 1032 -265 1019 -19 -10 -20 -7 -20 98 l0 109 -902 6
c-496 4 -1036 7 -1200 7 l-298 0 0 -155z"/>
<path d="M3260 1982 c-58 -53 -104 -101 -102 -107 2 -5 26 -49 54 -97 l50 -88
47 0 48 0 6 192 c3 106 5 194 3 195 -1 1 -49 -42 -106 -95z"/>
</g>
</svg>
